<svg xmlns="http://www.w3.org/2000/svg" width="72" height="60" viewBox="0 0 72 60" fill="none">
    <path d="M18.5971 0.0294266C18.438 0.0564194 18.259 0.10141 18.1994 0.1464C18.1497 0.182392 17.921 0.263374 17.7123 0.326361C17.1655 0.488325 16.5093 1.0642 16.3005 1.56809C16.2011 1.80203 16.0818 2.04498 16.0222 2.11697C15.9426 2.20695 15.9128 3.83559 15.9128 7.33581C15.9128 12.1588 15.9029 12.4467 15.7239 12.8336C15.4853 13.3285 14.7497 14.0213 14.2725 14.1923C13.9941 14.2913 12.7613 14.3273 8.19813 14.3633C4.33085 14.3903 2.42206 14.4442 2.33258 14.5072C2.25305 14.5612 1.98462 14.6692 1.72614 14.7592C1.16941 14.9481 0.533149 15.542 0.3542 16.0369C0.284609 16.2259 0.175251 16.4418 0.115601 16.5138C-0.0335229 16.6848 -0.0434645 26.7895 0.115601 26.9695C0.175251 27.0415 0.29455 27.2844 0.393966 27.5184C0.592799 28.0133 1.27877 28.6071 1.82556 28.7691C2.03433 28.8231 2.23316 28.9041 2.29281 28.949C2.41211 29.057 13.7058 29.057 13.8251 28.949C13.8847 28.9131 14.1333 28.8051 14.3818 28.7151C14.8192 28.5711 15.7637 27.8063 15.7637 27.5903C15.7637 27.5364 15.8532 27.3294 15.9625 27.1135C16.1514 26.7535 16.1614 26.5016 16.1812 21.6517C16.2111 16.6938 16.221 16.5588 16.4198 16.1629C16.6883 15.641 17.2748 15.1101 17.8514 14.8672L18.2988 14.6782H31.8691H42.454L42.8715 14.4712C43.1002 14.3633 43.3388 14.2733 43.3984 14.2733C43.6271 14.2733 44.492 13.4095 44.661 13.0136C44.7505 12.7886 44.8599 12.5727 44.9096 12.5187C44.9493 12.4737 44.9891 10.1882 44.9891 7.43479V2.4409L44.7505 1.85602C44.4523 1.12718 44.0347 0.668283 43.4283 0.41634C43.1698 0.308363 42.8616 0.173393 42.7522 0.119406C42.6031 0.0384235 42.2481 0.0114288 32.2171 0.00243187C24.8901 -0.006567 18.7661 0.0114307 18.5971 0.0294266Z" fill="black" shape-rendering="optimizeQuality" />
    <path d="M6.35624 37.8176C6.38324 37.6585 6.42823 37.4796 6.47322 37.4199C6.50922 37.3702 6.59021 37.1416 6.65319 36.9328C6.81517 36.3861 7.39108 35.73 7.895 35.5212C8.12896 35.4218 8.37192 35.3025 8.44391 35.2429C8.5339 35.1633 10.1626 35.1335 13.6631 35.1335C18.4863 35.1335 18.7743 35.1236 19.1612 34.9446C19.6561 34.7061 20.349 33.9704 20.52 33.4933C20.619 33.2149 20.655 31.9822 20.691 27.4193C20.718 23.5523 20.772 21.6436 20.8349 21.5541C20.8889 21.4746 20.9969 21.2062 21.0869 20.9477C21.2759 20.391 21.8698 19.7548 22.3647 19.5759C22.5537 19.5063 22.7696 19.3969 22.8416 19.3373C23.0126 19.1882 33.118 19.1782 33.298 19.3373C33.37 19.3969 33.6129 19.5162 33.8469 19.6156C34.3418 19.8144 34.9357 20.5004 35.0977 21.0471C35.1517 21.2559 35.2327 21.4547 35.2777 21.5144C35.3856 21.6336 35.3856 32.9266 35.2777 33.0459C35.2417 33.1056 35.1337 33.3541 35.0437 33.6026C34.8997 34.04 34.1348 34.9844 33.9189 34.9844C33.8649 34.9844 33.6579 35.0739 33.4419 35.1832C33.082 35.3721 32.83 35.382 27.9798 35.4019C23.0216 35.4317 22.8866 35.4417 22.4907 35.6405C21.9688 35.9089 21.4379 36.4954 21.1949 37.072L21.0059 37.5194L21.0059 51.0888L21.0869 57.695L20.8799 58.1125C20.772 58.3412 20.682 58.5798 20.682 58.6394C20.682 58.8681 19.8181 59.7329 19.4222 59.9019C19.1972 59.9914 18.9812 60.1007 18.9272 60.1504C18.8823 60.1902 16.5966 60.23 13.8431 60.23L8.84884 60.23L8.26394 59.9914C7.53505 59.6932 7.07613 59.2756 6.82417 58.6692C6.71618 58.4108 6.58121 58.1026 6.52721 57.9933C6.44623 57.8441 6.33824 61.4672 6.32924 51.4367C6.32024 44.1102 6.33824 37.9866 6.35624 37.8176Z" fill="black" shape-rendering="optimizeQuality"/>
</svg>